# xmcd
# 
# Track frame offsets:
#     150
#     21649
#     36947
#     73014
#     97197
#     117301
#     168266
#     187546
#     212671
#     248408
#     283839
#     325346
# 
# Disc length: 4732
# 
# Revision: 1
# Processed by: cddbd v1.5.2PL0 Copyright (c) Steve Scherf et al.
# Submitted via: fre:ac v1.0.17
# 
DISCID=ab127a0c
DTITLE=JJ Grey and Mofro - Brighter Days
DYEAR=2011
DGENRE=Blues
TTITLE0=Country Ghetto
TTITLE1=A Woman
TTITLE2=Brighter Days
TTITLE3=Air
TTITLE4=War
TTITLE5=Lochloosa
TTITLE6=Dirtfloorcracker
TTITLE7=Orange Blossoms
TTITLE8=Ho Cake
TTITLE9=The Sweetest Thing
TTITLE10=The Sun Is Shining Down
TTITLE11=On Fire
EXTD=
EXTT0=
EXTT1=
EXTT2=
EXTT3=
EXTT4=
EXTT5=
EXTT6=
EXTT7=
EXTT8=
EXTT9=
EXTT10=
EXTT11=
PLAYORDER=
